<mxfile host="65bd71144e">
    <diagram id="HIDOktM7Gtuuh0AKt5Jg" name="Page-1">
        <mxGraphModel dx="596" dy="338" grid="1" gridSize="10" guides="1" tooltips="1" connect="1" arrows="1" fold="1" page="1" pageScale="1" pageWidth="700" pageHeight="700" math="0" shadow="0">
            <root>
                <mxCell id="0"/>
                <mxCell id="1" parent="0"/>
                <mxCell id="gGm_6WvBBsqKDh-qRhNS-35" style="edgeStyle=orthogonalEdgeStyle;curved=1;rounded=0;orthogonalLoop=1;jettySize=auto;html=1;exitX=1;exitY=0.5;exitDx=0;exitDy=0;entryX=0;entryY=0.5;entryDx=0;entryDy=0;fontFamily=Verdana;fontSize=15;startArrow=classic;startFill=1;endArrow=none;endFill=0;" parent="1" source="gGm_6WvBBsqKDh-qRhNS-1" target="gGm_6WvBBsqKDh-qRhNS-24" edge="1">
                    <mxGeometry x="252" y="150" as="geometry"/>
                </mxCell>
                <mxCell id="gGm_6WvBBsqKDh-qRhNS-1" value="C7" style="ellipse;whiteSpace=wrap;html=1;aspect=fixed;align=center;fontFamily=Verdana;fontStyle=1;fontSize=15;rotation=0;" parent="1" vertex="1">
                    <mxGeometry x="327" y="340" width="50" height="50" as="geometry"/>
                </mxCell>
                <mxCell id="gGm_6WvBBsqKDh-qRhNS-39" value="" style="edgeStyle=orthogonalEdgeStyle;curved=1;rounded=0;orthogonalLoop=1;jettySize=auto;html=1;fontFamily=Verdana;fontSize=15;startArrow=none;startFill=0;endArrow=classic;endFill=1;" parent="1" source="gGm_6WvBBsqKDh-qRhNS-7" target="gGm_6WvBBsqKDh-qRhNS-38" edge="1">
                    <mxGeometry relative="1" as="geometry"/>
                </mxCell>
                <mxCell id="gGm_6WvBBsqKDh-qRhNS-45" style="edgeStyle=none;rounded=0;orthogonalLoop=1;jettySize=auto;html=1;exitX=0.5;exitY=0;exitDx=0;exitDy=0;entryX=0.5;entryY=1;entryDx=0;entryDy=0;fontFamily=Verdana;fontSize=15;startArrow=none;startFill=0;endArrow=classic;endFill=1;" parent="1" source="gGm_6WvBBsqKDh-qRhNS-7" target="gGm_6WvBBsqKDh-qRhNS-8" edge="1">
                    <mxGeometry relative="1" as="geometry"/>
                </mxCell>
                <mxCell id="gGm_6WvBBsqKDh-qRhNS-7" value="C3" style="ellipse;whiteSpace=wrap;html=1;aspect=fixed;align=center;fontFamily=Verdana;fontStyle=1;fontSize=15;rotation=0;" parent="1" vertex="1">
                    <mxGeometry x="181" y="340" width="50" height="50" as="geometry"/>
                </mxCell>
                <mxCell id="gGm_6WvBBsqKDh-qRhNS-34" style="edgeStyle=orthogonalEdgeStyle;curved=1;rounded=0;orthogonalLoop=1;jettySize=auto;html=1;exitX=1;exitY=0.5;exitDx=0;exitDy=0;entryX=0;entryY=0.5;entryDx=0;entryDy=0;fontFamily=Verdana;fontSize=15;startArrow=none;startFill=0;endArrow=classic;endFill=1;" parent="1" source="gGm_6WvBBsqKDh-qRhNS-8" target="gGm_6WvBBsqKDh-qRhNS-30" edge="1">
                    <mxGeometry x="252" y="150" as="geometry"/>
                </mxCell>
                <mxCell id="gGm_6WvBBsqKDh-qRhNS-8" value="C4" style="ellipse;whiteSpace=wrap;html=1;aspect=fixed;align=center;fontFamily=Verdana;fontStyle=1;fontSize=15;rotation=0;" parent="1" vertex="1">
                    <mxGeometry x="181" y="180" width="50" height="50" as="geometry"/>
                </mxCell>
                <mxCell id="gGm_6WvBBsqKDh-qRhNS-11" style="rounded=0;orthogonalLoop=1;jettySize=auto;html=1;fontFamily=Verdana;fontSize=15;entryX=0;entryY=0.5;entryDx=0;entryDy=0;startArrow=classic;startFill=1;endArrow=none;endFill=0;exitX=1;exitY=0.5;exitDx=0;exitDy=0;" parent="1" source="gGm_6WvBBsqKDh-qRhNS-7" target="gGm_6WvBBsqKDh-qRhNS-1" edge="1">
                    <mxGeometry x="252" y="150" as="geometry">
                        <mxPoint x="277" y="365" as="sourcePoint"/>
                        <mxPoint x="292" y="375" as="targetPoint"/>
                        <Array as="points"/>
                    </mxGeometry>
                </mxCell>
                <mxCell id="gGm_6WvBBsqKDh-qRhNS-41" value="" style="edgeStyle=orthogonalEdgeStyle;curved=1;rounded=0;orthogonalLoop=1;jettySize=auto;html=1;fontFamily=Verdana;fontSize=15;startArrow=none;startFill=0;endArrow=classic;endFill=1;" parent="1" source="gGm_6WvBBsqKDh-qRhNS-24" target="gGm_6WvBBsqKDh-qRhNS-40" edge="1">
                    <mxGeometry relative="1" as="geometry"/>
                </mxCell>
                <mxCell id="gGm_6WvBBsqKDh-qRhNS-24" value="C2" style="ellipse;whiteSpace=wrap;html=1;aspect=fixed;align=center;fontFamily=Verdana;fontStyle=1;fontSize=15;rotation=0;" parent="1" vertex="1">
                    <mxGeometry x="470" y="340" width="50" height="50" as="geometry"/>
                </mxCell>
                <mxCell id="gGm_6WvBBsqKDh-qRhNS-30" value="C1" style="ellipse;whiteSpace=wrap;html=1;aspect=fixed;align=center;fontFamily=Verdana;fontStyle=1;fontSize=15;rotation=0;" parent="1" vertex="1">
                    <mxGeometry x="470" y="180" width="50" height="50" as="geometry"/>
                </mxCell>
                <mxCell id="gGm_6WvBBsqKDh-qRhNS-31" value="" style="edgeStyle=orthogonalEdgeStyle;curved=1;rounded=0;orthogonalLoop=1;jettySize=auto;html=1;fontFamily=Verdana;fontSize=15;startArrow=classic;startFill=1;endArrow=none;endFill=0;" parent="1" source="gGm_6WvBBsqKDh-qRhNS-24" target="gGm_6WvBBsqKDh-qRhNS-30" edge="1">
                    <mxGeometry x="252" y="150" as="geometry"/>
                </mxCell>
                <mxCell id="gGm_6WvBBsqKDh-qRhNS-38" value="C5" style="ellipse;whiteSpace=wrap;html=1;aspect=fixed;align=center;fontFamily=Verdana;fontStyle=1;fontSize=15;rotation=0;" parent="1" vertex="1">
                    <mxGeometry x="181" y="470" width="50" height="50" as="geometry"/>
                </mxCell>
                <mxCell id="gGm_6WvBBsqKDh-qRhNS-43" style="rounded=0;orthogonalLoop=1;jettySize=auto;html=1;exitX=0;exitY=0;exitDx=0;exitDy=0;entryX=1;entryY=1;entryDx=0;entryDy=0;fontFamily=Verdana;fontSize=15;startArrow=none;startFill=0;endArrow=classic;endFill=1;" parent="1" source="gGm_6WvBBsqKDh-qRhNS-40" target="gGm_6WvBBsqKDh-qRhNS-7" edge="1">
                    <mxGeometry relative="1" as="geometry"/>
                </mxCell>
                <mxCell id="gGm_6WvBBsqKDh-qRhNS-44" style="edgeStyle=none;rounded=0;orthogonalLoop=1;jettySize=auto;html=1;exitX=0;exitY=0.5;exitDx=0;exitDy=0;entryX=1;entryY=0.5;entryDx=0;entryDy=0;fontFamily=Verdana;fontSize=15;startArrow=none;startFill=0;endArrow=classic;endFill=1;" parent="1" source="gGm_6WvBBsqKDh-qRhNS-40" target="gGm_6WvBBsqKDh-qRhNS-38" edge="1">
                    <mxGeometry relative="1" as="geometry"/>
                </mxCell>
                <mxCell id="gGm_6WvBBsqKDh-qRhNS-40" value="C6" style="ellipse;whiteSpace=wrap;html=1;aspect=fixed;align=center;fontFamily=Verdana;fontStyle=1;fontSize=15;rotation=0;" parent="1" vertex="1">
                    <mxGeometry x="470" y="470" width="50" height="50" as="geometry"/>
                </mxCell>
            </root>
        </mxGraphModel>
    </diagram>
</mxfile>